<svg version="1.2" xmlns="http://www.w3.org/2000/svg" viewBox="0 0 1722 534" width="1722" height="534">
	<title>vecteezy_day-and-night-mode-on-and-off-button-design_20560533-0-ai</title>
	<defs>
		<linearGradient id="g1" x2="1" gradientUnits="userSpaceOnUse" gradientTransform="matrix(0,530.063,-1787.537,0,933.955,10.367)">
			<stop offset="0" stop-color="#333333"/>
			<stop offset="1" stop-color="#000000"/>
		</linearGradient>
	</defs>
	<style>
		.s0 { opacity: .1;fill: #000000 } 
		.s1 { fill: url(#g1) } 
		.s2 { fill: #ffffff } 
	</style>
	<g id="_Artboards_">
	</g>
	<g id="Layer 1">
		<g id="&lt;Group&gt;">
			<g id="&lt;Group&gt;">
			</g>
			<g id="&lt;Group&gt;">
				<g id="&lt;Group&gt;">
					<g id="&lt;Group&gt;">
						<g id="&lt;Group&gt;">
							<g id="&lt;Group&gt;">
							</g>
						</g>
						<g id="&lt;Group&gt;">
						</g>
					</g>
				</g>
				<g id="&lt;Group&gt;">
					<path id="&lt;Path&gt;" class="s0" d="m1609 23.2h-1488.9c-56.8 0-102.8 46-102.8 102.8v296.8c0 56.8 46 102.8 102.8 102.8h1488.9c56.7 0 102.8-46 102.8-102.8v-296.8c0-56.8-46.1-102.8-102.8-102.8z"/>
					<path id="&lt;Path&gt;" class="s1" d="m1603.9 18.1h-1488.9c-56.7 0-102.8 46-102.8 102.8v296.8c0 56.8 46.1 102.8 102.8 102.8h1488.9c56.8 0 102.8-46 102.8-102.8v-296.8c0-56.8-46-102.8-102.8-102.8z"/>
					<g id="&lt;Group&gt;">
						<path id="&lt;Path&gt;" class="s2" d="m1287.2 245.2c7-59 46-106.3 97.5-126.9-21.6 22.1-36.4 51.3-40.3 84.4-9.6 79.9 47.5 152.4 127.4 161.9 42.5 5.1 82.9-8.7 112.9-34.7-27.8 59.7-91.6 97.6-160.6 89.3-85.9-10.2-147.2-88.1-136.9-174z"/>
						<path id="&lt;Path&gt;" class="s2" d="m1390.3 252.2l-3.9 1.7 3-3c6.4-6.3 8.2-15.9 4.5-24l-1.7-3.9 3 3c6.3 6.4 15.8 8.2 24 4.5l3.9-1.7-3 3c-6.4 6.3-8.2 15.8-4.5 24l1.7 3.9-3-3.1c-6.3-6.3-15.8-8.1-24-4.4z"/>
						<path id="&lt;Path&gt;" class="s2" d="m1473 272.9l-9.5 1 8.5-4.2c17.8-8.9 28.2-27.9 26.2-47.7l-1-9.5 4.3 8.6c8.9 17.8 27.8 28.2 47.6 26.1l9.5-1-8.5 4.3c-17.8 8.9-28.2 27.9-26.2 47.6l1 9.6-4.3-8.6c-8.9-17.8-27.8-28.2-47.6-26.2z"/>
					</g>
					<g id="&lt;Group&gt;">
						<g id="&lt;Group&gt;">
							<path id="&lt;Compound Path&gt;" class="s2" d="m215.2 324.2h-22l-65.9-99.9v99.9h-22v-133.9h22l65.9 99.6v-99.6h22z"/>
							<path id="&lt;Compound Path&gt;" class="s2" d="m245.2 200.1q-4.1-4-4.1-10 0-6 4.1-10 4-4 10-4 5.7 0 9.8 4 4 4 4 10 0 6-4 10-4.1 4-9.8 4-6 0-10-4zm20.7 18.1v106h-21.9v-106z"/>
							<path id="&lt;Compound Path&gt;" fill-rule="evenodd" class="s2" d="m359.3 221.3q9.6 5 14.9 12.3v-15.4h22.2v107.7q0 14.6-6.2 26.1-6.2 11.4-17.8 17.9-11.6 6.6-27.8 6.6-21.5 0-35.8-10.1-14.2-10.1-16.1-27.4h21.7q2.5 8.2 10.7 13.3 8.2 5.1 19.5 5.1 13.3 0 21.5-8 8.1-8.1 8.1-23.5v-17.7q-5.5 7.5-15.1 12.6-9.5 5.1-21.6 5.1-13.8 0-25.3-7-11.4-7.1-18.1-19.7-6.6-12.5-6.6-28.5 0-16 6.6-28.3 6.7-12.3 18.1-19.1 11.5-6.9 25.3-6.9 12.3 0 21.8 4.9zm10.4 30.7q-4.5-8.1-11.8-12.3-7.3-4.2-15.8-4.2-8.5 0-15.8 4.1-7.3 4.2-11.8 12.1-4.5 8-4.5 19 0 10.9 4.5 19.2 4.5 8.3 11.9 12.6 7.4 4.3 15.7 4.3 8.5 0 15.8-4.2 7.3-4.2 11.8-12.4 4.5-8.2 4.5-19.1 0-11-4.5-19.1z"/>
							<path id="&lt;Compound Path&gt;" class="s2" d="m501.7 221.6q9.5 5.2 15 15.4 5.4 10.2 5.4 24.6v62.6h-21.7v-59.3q0-14.2-7.1-21.8-7.1-7.6-19.4-7.6-12.3 0-19.6 7.6-7.2 7.6-7.2 21.8v59.3h-21.9v-142.4h21.9v48.7q5.6-6.7 14.2-10.4 8.5-3.7 18.7-3.7 12.1 0 21.7 5.2z"/>
							<path id="&lt;Compound Path&gt;" class="s2" d="m575.6 236.1v58.6q0 6 2.8 8.6 2.8 2.6 9.5 2.6h13.5v18.3h-17.3q-14.8 0-22.7-7-7.9-6.9-7.9-22.5v-58.6h-12.5v-17.9h12.5v-26.4h22.1v26.4h25.8v17.9z"/>
							<path id="&lt;Compound Path&gt;" class="s2" d="m822.3 221.6q9.9 5.2 15.6 15.4 5.6 10.2 5.6 24.6v62.6h-21.7v-59.3q0-14.2-7.1-21.8-7.1-7.6-19.4-7.6-12.3 0-19.5 7.6-7.3 7.6-7.3 21.8v59.3h-21.7v-59.3q0-14.2-7.1-21.8-7.1-7.6-19.4-7.6-12.4 0-19.6 7.6-7.2 7.6-7.2 21.8v59.3h-21.9v-106h21.9v12.1q5.4-6.5 13.7-10.2 8.2-3.7 17.7-3.7 12.7 0 22.7 5.4 10 5.4 15.4 15.6 4.8-9.6 15-15.3 10.2-5.7 21.9-5.7 12.5 0 22.4 5.2z"/>
							<path id="&lt;Compound Path&gt;" fill-rule="evenodd" class="s2" d="m890.3 319.1q-12.1-6.9-19-19.3-7-12.4-7-28.7 0-16.2 7.1-28.7 7.2-12.5 19.5-19.2 12.3-6.8 27.5-6.8 15.2 0 27.5 6.8 12.3 6.7 19.4 19.2 7.1 12.5 7.1 28.7 0 16.1-7.3 28.6-7.3 12.5-19.9 19.4-12.6 6.8-27.8 6.8-15 0-27.1-6.8zm43-16.3q7.4-4 12-12.1 4.6-8.1 4.6-19.6 0-11.6-4.4-19.6-4.4-7.9-11.7-12-7.3-4-15.8-4-8.5 0-15.7 4-7.2 4.1-11.4 12-4.3 8-4.3 19.6 0 17.1 8.8 26.4 8.7 9.3 22 9.3 8.5 0 15.9-4z"/>
							<path id="&lt;Compound Path&gt;" fill-rule="evenodd" class="s2" d="m993.5 242.4q6.6-12.3 18.1-19.1 11.4-6.9 25.5-6.9 10.3 0 20.4 4.6 10.1 4.5 16.1 12v-51.2h22.1v142.4h-22.1v-16q-5.4 7.7-14.9 12.7-9.5 5-21.8 5-13.9 0-25.3-7-11.5-7.1-18.1-19.7-6.6-12.5-6.7-28.5 0.1-16 6.7-28.3zm75.6 9.6q-4.5-8.1-11.9-12.3-7.3-4.2-15.7-4.2-8.5 0-15.8 4.1-7.3 4.2-11.8 12.1-4.5 8-4.5 19 0 10.9 4.5 19.2 4.5 8.3 11.9 12.6 7.4 4.3 15.7 4.3 8.4 0 15.7-4.2 7.4-4.2 11.9-12.4 4.5-8.2 4.5-19.1 0-11-4.5-19.1z"/>
							<path id="&lt;Compound Path&gt;" fill-rule="evenodd" class="s2" d="m1220.9 279.3h-80.9q0.9 12.7 9.4 20.4 8.4 7.7 20.7 7.7 17.7 0 25.1-14.8h23.6q-4.8 14.6-17.4 24-12.6 9.3-31.3 9.3-15.2 0-27.2-6.8-12-6.9-18.8-19.3-6.8-12.4-6.8-28.7 0-16.4 6.6-28.8 6.6-12.4 18.6-19.1 12.1-6.8 27.6-6.8 15.1 0 26.8 6.6 11.7 6.5 18.3 18.4 6.5 11.8 6.5 27.2 0 5.9-0.8 10.7zm-22.1-17.7q-0.2-12.1-8.6-19.4-8.5-7.3-21-7.3-11.4 0-19.4 7.2-8.1 7.2-9.7 19.5z"/>
						</g>
					</g>
				</g>
			</g>
		</g>
	</g>
</svg>