<svg version="1.2" xmlns="http://www.w3.org/2000/svg" viewBox="0 0 1732 529" width="1732" height="529">
	<title>vecteezy_day-and-night-mode-on-and-off-button-design_20560533-0-ai</title>
	<defs>
		<linearGradient id="g1" x2="1" gradientUnits="userSpaceOnUse" gradientTransform="matrix(0,515.863,-1739.652,0,937.955,12.45)">
			<stop offset="0" stop-color="#ffdc00"/>
			<stop offset="1" stop-color="#ff8c00"/>
		</linearGradient>
		<linearGradient id="g2" x2="1" gradientUnits="userSpaceOnUse" gradientTransform="matrix(0,262.313,-262.313,0,365.22,115.129)">
			<stop offset="0" stop-color="#ffdc00"/>
			<stop offset="1" stop-color="#ff8c00"/>
		</linearGradient>
		<linearGradient id="g3" x2="1" gradientUnits="userSpaceOnUse" gradientTransform="matrix(0,262.312,-54.272,0,386.863,115.129)">
			<stop offset="0" stop-color="#ffdc00"/>
			<stop offset="1" stop-color="#ff8c00"/>
		</linearGradient>
		<linearGradient id="g4" x2="1" gradientUnits="userSpaceOnUse" gradientTransform="matrix(0,262.312,-183.766,0,255.496,115.129)">
			<stop offset="0" stop-color="#ffdc00"/>
			<stop offset="1" stop-color="#ff8c00"/>
		</linearGradient>
		<linearGradient id="g5" x2="1" gradientUnits="userSpaceOnUse" gradientTransform="matrix(0,262.312,-374.431,0,194.128,115.129)">
			<stop offset="0" stop-color="#ffdc00"/>
			<stop offset="1" stop-color="#ff8c00"/>
		</linearGradient>
		<linearGradient id="g6" x2="1" gradientUnits="userSpaceOnUse" gradientTransform="matrix(0,262.312,-1267.845,0,169.5,115.129)">
			<stop offset="0" stop-color="#ffdc00"/>
			<stop offset="1" stop-color="#ff8c00"/>
		</linearGradient>
		<linearGradient id="g7" x2="1" gradientUnits="userSpaceOnUse" gradientTransform="matrix(0,262.313,-374.431,0,194.128,115.129)">
			<stop offset="0" stop-color="#ffdc00"/>
			<stop offset="1" stop-color="#ff8c00"/>
		</linearGradient>
		<linearGradient id="g8" x2="1" gradientUnits="userSpaceOnUse" gradientTransform="matrix(0,262.313,-183.766,0,255.496,115.129)">
			<stop offset="0" stop-color="#ffdc00"/>
			<stop offset="1" stop-color="#ff8c00"/>
		</linearGradient>
		<linearGradient id="g9" x2="1" gradientUnits="userSpaceOnUse" gradientTransform="matrix(0,262.312,-54.272,0,386.863,115.129)">
			<stop offset="0" stop-color="#ffdc00"/>
			<stop offset="1" stop-color="#ff8c00"/>
		</linearGradient>
		<linearGradient id="g10" x2="1" gradientUnits="userSpaceOnUse" gradientTransform="matrix(0,262.313,-183.767,0,369.77,115.129)">
			<stop offset="0" stop-color="#ffdc00"/>
			<stop offset="1" stop-color="#ff8c00"/>
		</linearGradient>
		<linearGradient id="g11" x2="1" gradientUnits="userSpaceOnUse" gradientTransform="matrix(0,262.313,-374.432,0,392.057,115.129)">
			<stop offset="0" stop-color="#ffdc00"/>
			<stop offset="1" stop-color="#ff8c00"/>
		</linearGradient>
		<linearGradient id="g12" x2="1" gradientUnits="userSpaceOnUse" gradientTransform="matrix(0,262.312,-1267.842,0,398.049,115.129)">
			<stop offset="0" stop-color="#ffdc00"/>
			<stop offset="1" stop-color="#ff8c00"/>
		</linearGradient>
		<linearGradient id="g13" x2="1" gradientUnits="userSpaceOnUse" gradientTransform="matrix(0,262.312,-374.432,0,392.057,115.129)">
			<stop offset="0" stop-color="#ffdc00"/>
			<stop offset="1" stop-color="#ff8c00"/>
		</linearGradient>
		<linearGradient id="g14" x2="1" gradientUnits="userSpaceOnUse" gradientTransform="matrix(0,262.312,-183.767,0,369.77,115.129)">
			<stop offset="0" stop-color="#ffdc00"/>
			<stop offset="1" stop-color="#ff8c00"/>
		</linearGradient>
	</defs>
	<style>
		.s0 { opacity: .1;fill: #000000 } 
		.s1 { fill: url(#g1) } 
		.s2 { fill: #ffffff } 
		.s3 { fill: url(#g2) } 
		.s4 { fill: url(#g3) } 
		.s5 { fill: url(#g4) } 
		.s6 { fill: url(#g5) } 
		.s7 { fill: url(#g6) } 
		.s8 { fill: url(#g7) } 
		.s9 { fill: url(#g8) } 
		.s10 { fill: url(#g9) } 
		.s11 { fill: url(#g10) } 
		.s12 { fill: url(#g11) } 
		.s13 { fill: url(#g12) } 
		.s14 { fill: url(#g13) } 
		.s15 { fill: url(#g14) } 
		.s16 { fill: #000000 } 
	</style>
	<g id="_Artboards_">
	</g>
	<g id="Layer 1">
		<g id="&lt;Group&gt;">
			<g id="&lt;Group&gt;">
			</g>
			<g id="&lt;Group&gt;">
				<g id="&lt;Group&gt;">
					<path id="&lt;Path&gt;" class="s0" d="m1612.7 22.5h-1488.9c-56.7 0-102.8 46-102.8 102.8v296.8c0 56.8 46.1 102.8 102.8 102.8h1488.9c56.8 0 102.8-46 102.8-102.8v-296.8c0-56.8-46-102.8-102.8-102.8z"/>
					<path id="&lt;Path&gt;" class="s1" d="m1607.9 17.6h-1488.9c-56.7 0-102.8 46.1-102.8 102.9v296.8c0 56.8 46.1 102.8 102.8 102.8h1488.9c56.8 0 102.8-46 102.8-102.8v-296.8c0-56.8-46-102.9-102.8-102.9z"/>
					<g id="&lt;Group&gt;">
						<g id="&lt;Group&gt;">
							<path id="&lt;Path&gt;" class="s2" d="m457.1 268.9c0 96.2-78 174.2-174.2 174.2-96.3 0-174.3-78-174.3-174.2 0-96.3 78-174.3 174.3-174.3 96.2 0 174.2 78 174.2 174.3z"/>
							<g id="&lt;Group&gt;">
								<path id="&lt;Path&gt;" class="s3" d="m365.2 268.9c0 45.5-36.9 82.3-82.3 82.3-45.5 0-82.4-36.8-82.4-82.3 0-45.5 36.9-82.4 82.4-82.4 45.4 0 82.3 36.9 82.3 82.4z"/>
								<path id="&lt;Path&gt;" class="s4" d="m287.3 176.1h-8.9v-43h8.9z"/>
								<path id="&lt;Path&gt;" class="s5" d="m240.3 186.3l-7.7 4.5-21.5-37.3 7.7-4.4z"/>
								<path id="&lt;Path&gt;" class="s6" d="m204.8 218.6l-4.5 7.8-37.3-21.6 4.5-7.7z"/>
								<path id="&lt;Path&gt;" class="s7" d="m190.1 264.4v8.9h-43v-8.9z"/>
								<path id="&lt;Path&gt;" class="s8" d="m200.3 311.4l4.5 7.7-37.3 21.5-4.5-7.7z"/>
								<path id="&lt;Path&gt;" class="s9" d="m232.6 347l7.7 4.4-21.5 37.3-7.7-4.4z"/>
								<path id="&lt;Path&gt;" class="s10" d="m278.4 361.6h8.9v43.1h-8.9z"/>
								<path id="&lt;Path&gt;" class="s11" d="m325.4 351.4l7.7-4.4 21.5 37.3-7.7 4.4z"/>
								<path id="&lt;Path&gt;" class="s12" d="m361 319.1l4.4-7.7 37.3 21.5-4.5 7.7z"/>
								<path id="&lt;Path&gt;" class="s13" d="m375.6 273.3v-8.9h43v8.9z"/>
								<path id="&lt;Path&gt;" class="s14" d="m365.4 226.4l-4.4-7.8 37.2-21.5 4.5 7.7z"/>
								<path id="&lt;Path&gt;" class="s15" d="m333.1 190.8l-7.7-4.5 21.5-37.2 7.7 4.4z"/>
							</g>
						</g>
						<g id="&lt;Group&gt;">
							<path id="&lt;Compound Path&gt;" fill-rule="evenodd" class="s16" d="m637.6 196.9q17.4 8.8 26.9 25.4 9.5 16.6 9.5 38.7 0 22.1-9.5 38.3-9.5 16.3-26.9 25-17.4 8.6-40.5 8.6h-47.4v-144.9h47.4q23.1 0 40.5 8.9zm-1.6 102.9q13.6-13.8 13.6-38.8 0-25.2-13.6-39.4-13.5-14.2-38.9-14.2h-23.6v106.1h23.6q25.4 0 38.9-13.7z"/>
							<path id="&lt;Compound Path&gt;" fill-rule="evenodd" class="s16" d="m696.8 244.3q7.2-13.3 19.6-20.7 12.4-7.4 27.4-7.4 13.6 0 23.7 5.3 10.1 5.3 16.1 13.2v-16.7h24v114.9h-24v-17.1q-6 8.1-16.4 13.6-10.5 5.4-23.8 5.4-14.8 0-27.1-7.6-12.3-7.6-19.5-21.3-7.2-13.6-7.2-30.9 0-17.4 7.2-30.7zm81.9 10.4q-4.9-8.7-12.8-13.3-7.9-4.6-17.1-4.6-9.1 0-17.1 4.5-7.9 4.5-12.8 13.1-4.9 8.7-4.9 20.6 0 11.8 4.9 20.8 4.9 9 12.9 13.7 8.1 4.6 17 4.6 9.2 0 17.1-4.5 7.9-4.6 12.8-13.5 4.9-8.8 4.9-20.7 0-11.9-4.9-20.7z"/>
							<path id="&lt;Compound Path&gt;" class="s16" d="m942.3 218l-70.5 168.9h-24.6l23.4-55.9-45.3-113h26.5l32.3 87.6 33.6-87.6z"/>
							<path id="&lt;Compound Path&gt;" class="s16" d="m1167 188v144.9h-23.7v-99.2l-44.2 99.2h-16.5l-44.4-99.2v99.2h-23.8v-144.9h25.7l50.8 113.6 50.7-113.6z"/>
							<path id="&lt;Compound Path&gt;" fill-rule="evenodd" class="s16" d="m1218.8 327.4q-13.2-7.4-20.7-20.9-7.5-13.4-7.5-31.1 0-17.5 7.7-31.1 7.7-13.5 21.1-20.8 13.3-7.3 29.8-7.3 16.5 0 29.8 7.3 13.3 7.3 21.1 20.8 7.7 13.6 7.7 31.1 0 17.5-7.9 31-8 13.6-21.6 21-13.7 7.4-30.2 7.4-16.2 0-29.3-7.4zm46.5-17.6q8.1-4.4 13.1-13.2 5-8.7 5-21.2 0-12.5-4.8-21.2-4.8-8.6-12.7-13-8-4.4-17.1-4.4-9.2 0-17 4.4-7.8 4.4-12.4 13-4.6 8.7-4.6 21.2 0 18.5 9.5 28.6 9.5 10.1 23.8 10.1 9.2 0 17.2-4.3z"/>
							<path id="&lt;Compound Path&gt;" fill-rule="evenodd" class="s16" d="m1330.6 244.3q7.2-13.3 19.6-20.7 12.4-7.4 27.6-7.4 11.3 0 22.2 4.9 11 4.9 17.4 13v-55.5h24v154.3h-24v-17.3q-5.8 8.3-16.1 13.8-10.3 5.4-23.7 5.4-15 0-27.4-7.6-12.4-7.6-19.6-21.3-7.2-13.6-7.2-30.9 0-17.4 7.2-30.7zm81.9 10.4q-4.9-8.7-12.8-13.3-7.9-4.6-17.1-4.6-9.2 0-17.1 4.5-7.9 4.5-12.8 13.1-4.9 8.7-4.9 20.6 0 11.8 4.9 20.8 4.9 9 12.9 13.7 8.1 4.6 17 4.6 9.2 0 17.1-4.5 7.9-4.6 12.8-13.5 4.9-8.8 4.9-20.7 0-11.9-4.9-20.7z"/>
							<path id="&lt;Compound Path&gt;" fill-rule="evenodd" class="s16" d="m1577.1 284.3h-87.7q1 13.8 10.2 22.1 9.2 8.4 22.5 8.4 19.2 0 27.1-16.1h25.6q-5.2 15.9-18.8 26-13.7 10.1-33.9 10.1-16.5 0-29.5-7.4-13-7.4-20.4-20.9-7.4-13.4-7.4-31.1 0-17.8 7.2-31.2 7.1-13.4 20.2-20.7 13-7.3 29.9-7.3 16.3 0 29 7 12.7 7.1 19.8 20 7.1 12.8 7.1 29.5 0 6.4-0.9 11.6zm-23.9-19.1q-0.2-13.2-9.4-21.1-9.2-7.9-22.7-7.9-12.3 0-21.1 7.8-8.8 7.8-10.4 21.2z"/>
						</g>
					</g>
				</g>
				<g id="&lt;Group&gt;">
					<g id="&lt;Group&gt;">
					</g>
					<g id="&lt;Group&gt;">
						<g id="&lt;Group&gt;">
						</g>
					</g>
				</g>
			</g>
		</g>
	</g>
</svg>